<mxfile host="app.diagrams.net" modified="2023-08-09T08:31:35.400Z" agent="Mozilla/5.0 (Windows NT 10.0; Win64; x64) AppleWebKit/537.36 (KHTML, like Gecko) Chrome/115.0.0.0 Safari/537.36" etag="2kJqoCMlNmarpQolCLeo" version="21.3.2" type="github">
  <diagram name="第 1 页" id="Ht3AoicJhnQ3ShJxtHIN">
    <mxGraphModel dx="1216" dy="754" grid="0" gridSize="10" guides="1" tooltips="1" connect="1" arrows="1" fold="1" page="1" pageScale="1" pageWidth="827" pageHeight="1169" math="0" shadow="0">
      <root>
        <mxCell id="0" />
        <mxCell id="1" parent="0" />
        <mxCell id="I6IuXEpssp2QQQZFDbhi-1" value="&lt;font style=&quot;font-size: 28px;&quot;&gt;函数连续&lt;/font&gt;" style="rounded=0;whiteSpace=wrap;html=1;strokeColor=#FFFFFF;" vertex="1" parent="1">
          <mxGeometry x="188" y="195" width="120" height="60" as="geometry" />
        </mxCell>
        <mxCell id="I6IuXEpssp2QQQZFDbhi-2" value="&lt;font style=&quot;font-size: 28px;&quot;&gt;函数可导&lt;/font&gt;" style="rounded=0;whiteSpace=wrap;html=1;strokeColor=#FFFFFF;" vertex="1" parent="1">
          <mxGeometry x="428" y="195" width="120" height="60" as="geometry" />
        </mxCell>
        <mxCell id="I6IuXEpssp2QQQZFDbhi-3" value="&lt;font style=&quot;font-size: 28px;&quot;&gt;函数连续&lt;/font&gt;" style="rounded=0;whiteSpace=wrap;html=1;strokeColor=#FFFFFF;" vertex="1" parent="1">
          <mxGeometry x="308" y="310" width="120" height="60" as="geometry" />
        </mxCell>
        <mxCell id="I6IuXEpssp2QQQZFDbhi-4" value="&lt;font style=&quot;font-size: 28px;&quot;&gt;偏导数连续&lt;/font&gt;" style="rounded=0;whiteSpace=wrap;html=1;strokeColor=#FFFFFF;" vertex="1" parent="1">
          <mxGeometry x="296" y="436" width="148" height="60" as="geometry" />
        </mxCell>
        <mxCell id="I6IuXEpssp2QQQZFDbhi-5" value="" style="endArrow=classic;html=1;rounded=0;entryX=0.25;entryY=0;entryDx=0;entryDy=0;exitX=0.75;exitY=1;exitDx=0;exitDy=0;strokeColor=#FF0000;" edge="1" parent="1" source="I6IuXEpssp2QQQZFDbhi-1" target="I6IuXEpssp2QQQZFDbhi-3">
          <mxGeometry width="50" height="50" relative="1" as="geometry">
            <mxPoint x="433" y="526" as="sourcePoint" />
            <mxPoint x="483" y="476" as="targetPoint" />
          </mxGeometry>
        </mxCell>
        <mxCell id="I6IuXEpssp2QQQZFDbhi-6" value="" style="endArrow=classic;html=1;rounded=0;exitX=0.25;exitY=1;exitDx=0;exitDy=0;entryX=0.75;entryY=0;entryDx=0;entryDy=0;strokeColor=#FF0000;" edge="1" parent="1" source="I6IuXEpssp2QQQZFDbhi-2" target="I6IuXEpssp2QQQZFDbhi-3">
          <mxGeometry width="50" height="50" relative="1" as="geometry">
            <mxPoint x="433" y="526" as="sourcePoint" />
            <mxPoint x="483" y="476" as="targetPoint" />
          </mxGeometry>
        </mxCell>
        <mxCell id="I6IuXEpssp2QQQZFDbhi-9" value="" style="endArrow=classic;html=1;rounded=0;entryX=0.25;entryY=1;entryDx=0;entryDy=0;" edge="1" parent="1" target="I6IuXEpssp2QQQZFDbhi-1">
          <mxGeometry width="50" height="50" relative="1" as="geometry">
            <mxPoint x="308" y="340" as="sourcePoint" />
            <mxPoint x="483" y="476" as="targetPoint" />
            <Array as="points">
              <mxPoint x="218" y="340" />
            </Array>
          </mxGeometry>
        </mxCell>
        <mxCell id="I6IuXEpssp2QQQZFDbhi-10" value="" style="endArrow=classic;html=1;rounded=0;exitX=1;exitY=0.5;exitDx=0;exitDy=0;entryX=0.75;entryY=1;entryDx=0;entryDy=0;" edge="1" parent="1" source="I6IuXEpssp2QQQZFDbhi-3" target="I6IuXEpssp2QQQZFDbhi-2">
          <mxGeometry width="50" height="50" relative="1" as="geometry">
            <mxPoint x="433" y="526" as="sourcePoint" />
            <mxPoint x="483" y="476" as="targetPoint" />
            <Array as="points">
              <mxPoint x="518" y="340" />
            </Array>
          </mxGeometry>
        </mxCell>
        <mxCell id="I6IuXEpssp2QQQZFDbhi-11" value="" style="endArrow=classic;html=1;rounded=0;exitX=1;exitY=0.25;exitDx=0;exitDy=0;entryX=0;entryY=0.25;entryDx=0;entryDy=0;strokeColor=#FF0000;" edge="1" parent="1" source="I6IuXEpssp2QQQZFDbhi-1" target="I6IuXEpssp2QQQZFDbhi-2">
          <mxGeometry width="50" height="50" relative="1" as="geometry">
            <mxPoint x="436" y="469" as="sourcePoint" />
            <mxPoint x="486" y="419" as="targetPoint" />
          </mxGeometry>
        </mxCell>
        <mxCell id="I6IuXEpssp2QQQZFDbhi-12" value="" style="endArrow=classic;html=1;rounded=0;exitX=0;exitY=0.75;exitDx=0;exitDy=0;entryX=1;entryY=0.75;entryDx=0;entryDy=0;strokeColor=#FF0000;" edge="1" parent="1" source="I6IuXEpssp2QQQZFDbhi-2" target="I6IuXEpssp2QQQZFDbhi-1">
          <mxGeometry width="50" height="50" relative="1" as="geometry">
            <mxPoint x="436" y="469" as="sourcePoint" />
            <mxPoint x="486" y="419" as="targetPoint" />
          </mxGeometry>
        </mxCell>
        <mxCell id="I6IuXEpssp2QQQZFDbhi-13" value="" style="endArrow=none;html=1;rounded=0;strokeColor=#FF0000;" edge="1" parent="1">
          <mxGeometry width="50" height="50" relative="1" as="geometry">
            <mxPoint x="342" y="195" as="sourcePoint" />
            <mxPoint x="393" y="250" as="targetPoint" />
          </mxGeometry>
        </mxCell>
        <mxCell id="I6IuXEpssp2QQQZFDbhi-14" value="" style="endArrow=classic;html=1;rounded=0;exitX=0.75;exitY=1;exitDx=0;exitDy=0;strokeColor=#FF0000;" edge="1" parent="1" source="I6IuXEpssp2QQQZFDbhi-3">
          <mxGeometry width="50" height="50" relative="1" as="geometry">
            <mxPoint x="575" y="454" as="sourcePoint" />
            <mxPoint x="400" y="440" as="targetPoint" />
          </mxGeometry>
        </mxCell>
        <mxCell id="I6IuXEpssp2QQQZFDbhi-16" value="" style="endArrow=classic;html=1;rounded=0;strokeColor=#000000;entryX=0.25;entryY=1;entryDx=0;entryDy=0;" edge="1" parent="1" target="I6IuXEpssp2QQQZFDbhi-3">
          <mxGeometry width="50" height="50" relative="1" as="geometry">
            <mxPoint x="338" y="437" as="sourcePoint" />
            <mxPoint x="563" y="448" as="targetPoint" />
          </mxGeometry>
        </mxCell>
        <mxCell id="I6IuXEpssp2QQQZFDbhi-17" value="" style="endArrow=none;html=1;rounded=0;strokeColor=#FF0000;" edge="1" parent="1">
          <mxGeometry width="50" height="50" relative="1" as="geometry">
            <mxPoint x="384" y="380" as="sourcePoint" />
            <mxPoint x="410" y="415" as="targetPoint" />
          </mxGeometry>
        </mxCell>
        <mxCell id="I6IuXEpssp2QQQZFDbhi-18" value="" style="endArrow=none;html=1;rounded=0;strokeColor=#FF0000;" edge="1" parent="1">
          <mxGeometry width="50" height="50" relative="1" as="geometry">
            <mxPoint x="410" y="264" as="sourcePoint" />
            <mxPoint x="442" y="303" as="targetPoint" />
          </mxGeometry>
        </mxCell>
        <mxCell id="I6IuXEpssp2QQQZFDbhi-19" value="" style="endArrow=none;html=1;rounded=0;strokeColor=#FF0000;" edge="1" parent="1">
          <mxGeometry width="50" height="50" relative="1" as="geometry">
            <mxPoint x="319" y="258" as="sourcePoint" />
            <mxPoint x="289" y="293" as="targetPoint" />
          </mxGeometry>
        </mxCell>
      </root>
    </mxGraphModel>
  </diagram>
</mxfile>
